<svg width="112" height="40" viewBox="0 0 112 40" fill="none" xmlns="http://www.w3.org/2000/svg">
<path d="M8.36364 9.27273L5.13636 18H3.77273L0.545455 9.27273H2L4.40909 16.2273H4.5L6.90909 9.27273H8.36364ZM10.1335 18V9.27273H11.4744V18H10.1335ZM10.8153 7.81818C10.554 7.81818 10.3286 7.72917 10.1392 7.55114C9.9536 7.37311 9.8608 7.15909 9.8608 6.90909C9.8608 6.65909 9.9536 6.44508 10.1392 6.26705C10.3286 6.08902 10.554 6 10.8153 6C11.0767 6 11.3002 6.08902 11.4858 6.26705C11.6752 6.44508 11.7699 6.65909 11.7699 6.90909C11.7699 7.15909 11.6752 7.37311 11.4858 7.55114C11.3002 7.72917 11.0767 7.81818 10.8153 7.81818ZM17.5895 18.1818C16.7486 18.1818 16.0232 17.9962 15.4134 17.625C14.8073 17.25 14.3395 16.7273 14.0099 16.0568C13.6842 15.3826 13.5213 14.5985 13.5213 13.7045C13.5213 12.8106 13.6842 12.0227 14.0099 11.3409C14.3395 10.6553 14.7978 10.1212 15.3849 9.73864C15.9759 9.35227 16.6652 9.15909 17.4531 9.15909C17.9077 9.15909 18.3565 9.23485 18.7997 9.38636C19.2429 9.53788 19.6463 9.78409 20.0099 10.125C20.3736 10.4621 20.6634 10.9091 20.8793 11.4659C21.0952 12.0227 21.2031 12.7083 21.2031 13.5227V14.0909H14.4759V12.9318H19.8395C19.8395 12.4394 19.741 12 19.544 11.6136C19.3509 11.2273 19.0743 10.9223 18.7145 10.6989C18.3584 10.4754 17.938 10.3636 17.4531 10.3636C16.919 10.3636 16.4569 10.4962 16.0668 10.7614C15.6804 11.0227 15.383 11.3636 15.1747 11.7841C14.9664 12.2045 14.8622 12.6553 14.8622 13.1364V13.9091C14.8622 14.5682 14.9759 15.1269 15.2031 15.5852C15.4342 16.0398 15.7543 16.3864 16.1634 16.625C16.5724 16.8598 17.0478 16.9773 17.5895 16.9773C17.9418 16.9773 18.2599 16.928 18.544 16.8295C18.8319 16.7273 19.08 16.5758 19.2884 16.375C19.4967 16.1705 19.6577 15.9167 19.7713 15.6136L21.0668 15.9773C20.9304 16.4167 20.7012 16.803 20.3793 17.1364C20.0573 17.4659 19.6596 17.7235 19.1861 17.9091C18.7126 18.0909 18.1804 18.1818 17.5895 18.1818ZM25.2202 18L22.5611 9.27273H23.9702L25.8565 15.9545H25.9474L27.8111 9.27273H29.2429L31.0838 15.9318H31.1747L33.0611 9.27273H34.4702L31.8111 18H30.4929L28.5838 11.2955H28.4474L26.5384 18H25.2202ZM40.7429 18V9.27273H42.0384V10.6364H42.152C42.3338 10.1705 42.6274 9.80871 43.0327 9.55114C43.438 9.28977 43.9247 9.15909 44.4929 9.15909C45.0687 9.15909 45.5478 9.28977 45.9304 9.55114C46.3168 9.80871 46.6179 10.1705 46.8338 10.6364H46.9247C47.1482 10.1856 47.4834 9.82765 47.9304 9.5625C48.3774 9.29356 48.9134 9.15909 49.5384 9.15909C50.3187 9.15909 50.9569 9.40341 51.4531 9.89205C51.9493 10.3769 52.1974 11.1326 52.1974 12.1591V18H50.8565V12.1591C50.8565 11.5152 50.6804 11.0549 50.3281 10.7784C49.9759 10.5019 49.5611 10.3636 49.0838 10.3636C48.4702 10.3636 47.9948 10.5492 47.6577 10.9205C47.3205 11.2879 47.152 11.7538 47.152 12.3182V18H45.7884V12.0227C45.7884 11.5265 45.6274 11.1269 45.3054 10.8239C44.9834 10.517 44.5687 10.3636 44.0611 10.3636C43.7126 10.3636 43.3868 10.4564 43.0838 10.642C42.7846 10.8277 42.5421 11.0852 42.3565 11.4148C42.1747 11.7405 42.0838 12.1174 42.0838 12.5455V18H40.7429ZM58.1946 18.1818C57.4067 18.1818 56.7154 17.9943 56.1207 17.6193C55.5298 17.2443 55.0677 16.7197 54.7344 16.0455C54.4048 15.3712 54.2401 14.5833 54.2401 13.6818C54.2401 12.7727 54.4048 11.9792 54.7344 11.3011C55.0677 10.6231 55.5298 10.0966 56.1207 9.72159C56.7154 9.34659 57.4067 9.15909 58.1946 9.15909C58.9825 9.15909 59.6719 9.34659 60.2628 9.72159C60.8575 10.0966 61.3196 10.6231 61.6491 11.3011C61.9825 11.9792 62.1491 12.7727 62.1491 13.6818C62.1491 14.5833 61.9825 15.3712 61.6491 16.0455C61.3196 16.7197 60.8575 17.2443 60.2628 17.6193C59.6719 17.9943 58.9825 18.1818 58.1946 18.1818ZM58.1946 16.9773C58.7931 16.9773 59.2855 16.8239 59.6719 16.517C60.0582 16.2102 60.3442 15.8068 60.5298 15.3068C60.7154 14.8068 60.8082 14.2652 60.8082 13.6818C60.8082 13.0985 60.7154 12.5549 60.5298 12.0511C60.3442 11.5473 60.0582 11.1402 59.6719 10.8295C59.2855 10.5189 58.7931 10.3636 58.1946 10.3636C57.5961 10.3636 57.1037 10.5189 56.7173 10.8295C56.331 11.1402 56.045 11.5473 55.8594 12.0511C55.6738 12.5549 55.581 13.0985 55.581 13.6818C55.581 14.2652 55.6738 14.8068 55.8594 15.3068C56.045 15.8068 56.331 16.2102 56.7173 16.517C57.1037 16.8239 57.5961 16.9773 58.1946 16.9773ZM64.196 18V9.27273H65.4915V10.5909H65.5824C65.7415 10.1591 66.0294 9.80871 66.446 9.53977C66.8627 9.27083 67.3324 9.13636 67.8551 9.13636C67.9536 9.13636 68.0767 9.13826 68.2244 9.14205C68.3722 9.14583 68.4839 9.15152 68.5597 9.15909V10.5227C68.5142 10.5114 68.41 10.4943 68.2472 10.4716C68.0881 10.4451 67.9195 10.4318 67.7415 10.4318C67.3172 10.4318 66.9384 10.5208 66.6051 10.6989C66.2756 10.8731 66.0142 11.1155 65.821 11.4261C65.6316 11.733 65.5369 12.0833 65.5369 12.4773V18H64.196ZM73.5426 18.1818C72.7017 18.1818 71.9763 17.9962 71.3665 17.625C70.7604 17.25 70.2926 16.7273 69.9631 16.0568C69.6373 15.3826 69.4744 14.5985 69.4744 13.7045C69.4744 12.8106 69.6373 12.0227 69.9631 11.3409C70.2926 10.6553 70.7509 10.1212 71.3381 9.73864C71.929 9.35227 72.6184 9.15909 73.4062 9.15909C73.8608 9.15909 74.3097 9.23485 74.7528 9.38636C75.196 9.53788 75.5994 9.78409 75.9631 10.125C76.3267 10.4621 76.6165 10.9091 76.8324 11.4659C77.0483 12.0227 77.1562 12.7083 77.1562 13.5227V14.0909H70.429V12.9318H75.7926C75.7926 12.4394 75.6941 12 75.4972 11.6136C75.304 11.2273 75.0275 10.9223 74.6676 10.6989C74.3116 10.4754 73.8911 10.3636 73.4062 10.3636C72.8722 10.3636 72.41 10.4962 72.0199 10.7614C71.6335 11.0227 71.3362 11.3636 71.1278 11.7841C70.9195 12.2045 70.8153 12.6553 70.8153 13.1364V13.9091C70.8153 14.5682 70.929 15.1269 71.1562 15.5852C71.3873 16.0398 71.7074 16.3864 72.1165 16.625C72.5256 16.8598 73.0009 16.9773 73.5426 16.9773C73.8949 16.9773 74.2131 16.928 74.4972 16.8295C74.785 16.7273 75.0331 16.5758 75.2415 16.375C75.4498 16.1705 75.6108 15.9167 75.7244 15.6136L77.0199 15.9773C76.8835 16.4167 76.6544 16.803 76.3324 17.1364C76.0104 17.4659 75.6127 17.7235 75.1392 17.9091C74.6657 18.0909 74.1335 18.1818 73.5426 18.1818Z" fill="black"/>
<line y1="39.5" x2="111" y2="39.5" stroke="black"/>
<line y1="-0.5" x2="18.9692" y2="-0.5" transform="matrix(0.774475 0.632604 -0.774475 0.632604 96.3088 28)" stroke="black"/>
</svg>
